<?xml version="1.0" standalone="no"?>
<!DOCTYPE svg PUBLIC "-//W3C//DTD SVG 20010904//EN"
 "http://www.w3.org/TR/2001/REC-SVG-20010904/DTD/svg10.dtd">
<svg version="1.0" xmlns="http://www.w3.org/2000/svg"
 width="512.000000pt" height="512.000000pt" viewBox="0 0 512.000000 512.000000"
 preserveAspectRatio="xMidYMid meet">
<metadata>
Created by potrace 1.14, written by Peter Selinger 2001-2017
</metadata>
<g transform="translate(0.000000,512.000000) scale(0.100000,-0.100000)"
fill="#000000" stroke="none">
<path d="M1083 4711 c-12 -9 -10 -274 2 -283 6 -5 7 -8 0 -8 -6 0 -10 -58 -10
-155 0 -97 4 -155 10 -155 7 0 6 -3 0 -8 -14 -10 -14 -464 0 -474 7 -5 7 -8 0
-8 -12 0 -13 -538 -2 -558 5 -6 4 -12 0 -12 -12 0 -10 -373 2 -382 7 -5 7 -8
0 -8 -12 0 -13 -538 -2 -558 5 -6 4 -12 0 -12 -12 0 -10 -373 2 -382 7 -5 7
-8 0 -8 -11 0 -14 -544 -3 -555 5 -5 2759 -10 3008 -5 l25 0 0 1788 0 1787
-1512 1 c-832 0 -1516 -2 -1520 -5z"/>
</g>
</svg>
