<?xml version="1.0" encoding="UTF-8" standalone="no"?>
<!-- Generator: Adobe Illustrator 17.0.0, SVG Export Plug-In . SVG Version: 6.00 Build 0)  -->

<svg
   version="1.1"
   id="Layer_1"
   x="0px"
   y="0px"
   width="600px"
   height="138.596px"
   viewBox="0 0 600 138.596"
   enable-background="new 0 0 600 138.596"
   xml:space="preserve"
   sodipodi:docname="pblogo.svg"
   inkscape:version="1.3 (0e150ed, 2023-07-21)"
   xmlns:inkscape="http://www.inkscape.org/namespaces/inkscape"
   xmlns:sodipodi="http://sodipodi.sourceforge.net/DTD/sodipodi-0.dtd"
   xmlns="http://www.w3.org/2000/svg"
   xmlns:svg="http://www.w3.org/2000/svg"><defs
   id="defs1"><rect
     x="391.52542"
     y="-33.050847"
     width="205.9322"
     height="302.54237"
     id="rect2" /></defs><sodipodi:namedview
   id="namedview1"
   pagecolor="#ffffff"
   bordercolor="#000000"
   borderopacity="0.25"
   inkscape:showpageshadow="2"
   inkscape:pageopacity="0.0"
   inkscape:pagecheckerboard="0"
   inkscape:deskcolor="#d1d1d1"
   inkscape:zoom="0.39333333"
   inkscape:cx="298.72882"
   inkscape:cy="69.915255"
   inkscape:window-width="1312"
   inkscape:window-height="838"
   inkscape:window-x="16"
   inkscape:window-y="40"
   inkscape:window-maximized="0"
   inkscape:current-layer="Layer_1" />&#10;&#10;<path
   d="m 35.535694,27.827209 q 11.102961,0 16.48018,5.775532 5.427008,5.725742 5.427008,16.729125 0,5.526586 -1.394094,10.057391 -1.344305,4.481016 -4.132492,7.717305 -2.788188,3.236289 -7.020258,4.978906 -4.23207,1.742617 -10.007602,1.742617 H 31.054678 V 100.61882 H 17.063951 V 27.827209 Z m -1.04557,11.899586 H 31.054678 V 62.87871 h 2.439664 q 3.335868,0 5.576375,-1.244727 2.240508,-1.244726 3.385657,-3.983125 1.145148,-2.738398 1.145148,-7.219414 0,-5.576375 -2.290297,-8.115617 -2.240508,-2.589032 -6.821101,-2.589032 z m 51.133368,4.082704 q 8.115618,0 12.347688,5.028695 4.28186,4.978906 4.28186,14.88693 v 36.893696 h -9.708868 l -2.14093,-7.468359 h -0.298734 q -1.692828,2.837976 -3.634602,4.729961 -1.891984,1.891984 -4.331648,2.788188 -2.439664,0.94599 -5.725742,0.94599 -4.630383,0 -7.518149,-2.489452 -2.837977,-2.489453 -4.132492,-6.472578 -1.294516,-3.983125 -1.294516,-8.464141 0,-8.713086 4.829539,-13.194102 4.829539,-4.481015 13.741782,-4.829539 l 6.92068,-0.298734 v -2.240508 q 0,-4.580594 -1.443883,-6.821102 -1.394094,-2.290297 -4.630383,-2.290297 -2.389875,0 -5.227852,0.945992 -2.837977,0.945993 -6.223633,2.937555 l -3.684391,-9.908023 q 3.783969,-2.290297 8.314774,-3.485235 4.530805,-1.194937 9.5595,-1.194937 z m 3.335868,30.919008 -3.73418,0.199156 q -4.232071,0.199157 -6.323211,2.389875 -2.041352,2.14093 -2.041352,6.273422 0,3.73418 1.244727,5.576376 1.294515,1.842195 3.734179,1.842195 3.136711,0 5.128274,-3.037133 1.991563,-3.037133 1.991563,-8.165406 z m 64.22789,-29.873438 v 55.763751 h -10.40592 l -1.49367,-7.119836 h -0.74683 q -1.24473,2.68861 -3.03714,4.481016 -1.7924,1.792406 -4.13249,2.68861 -2.2903,0.94599 -5.12827,0.94599 -4.92912,0 -8.2152,-2.439663 -3.28608,-2.439664 -4.92912,-6.970469 -1.64304,-4.580593 -1.64304,-10.953594 V 44.855069 h 13.2439 v 32.41268 q 0,6.273422 1.24472,9.410133 1.24473,3.136711 4.03292,3.136711 3.33586,0 5.02869,-1.941773 1.69283,-1.941774 2.2903,-5.675953 0.64726,-3.73418 0.64726,-9.011821 V 44.855069 Z m 24.69538,55.763751 H 164.63874 V 23.147037 h 13.24389 z m 30.52069,-72.791611 h 19.16879 q 11.25233,0 16.82871,4.431227 5.62616,4.381437 5.62616,13.492836 0,4.28186 -1.19494,7.667516 -1.14515,3.335867 -3.33587,5.526586 -2.19071,2.190719 -5.27764,3.037133 v 0.49789 q 3.88355,1.045571 6.32321,3.286079 2.48946,2.240508 3.63461,5.675953 1.14514,3.435445 1.14514,8.065828 0,6.472578 -2.58903,11.20254 -2.53924,4.729961 -7.36878,7.318992 -4.82954,2.589031 -11.55106,2.589031 h -21.4093 z m 13.99073,29.475126 h 5.17806 q 4.23207,0 6.27342,-2.439664 2.09114,-2.439664 2.09114,-7.169625 0,-4.132493 -2.14093,-6.273422 -2.14093,-2.190719 -6.42278,-2.190719 h -4.97891 z m 0,11.102961 v 20.463305 h 6.32321 q 4.18228,0 6.27342,-2.589031 2.09114,-2.589031 2.09114,-7.866672 0,-3.236289 -1.04557,-5.427008 -1.04557,-2.240508 -3.03713,-3.385656 -1.94177,-1.194938 -4.82954,-1.194938 z m 63.18232,-24.595797 q 1.09536,0 2.14093,0.199156 1.04557,0.149367 2.43966,0.54768 l -1.19494,14.140094 q -0.99578,-0.398313 -2.19071,-0.54768 -1.14515,-0.149367 -2.53925,-0.149367 -2.29029,0 -4.0827,0.995781 -1.79241,0.995781 -3.03713,2.887766 -1.19494,1.842195 -1.8422,4.481015 -0.59747,2.589032 -0.59747,5.825321 V 100.61882 H 261.42867 V 44.855069 h 10.20676 l 1.89198,9.161188 h 0.64726 q 1.09536,-2.638821 2.7384,-4.978907 1.64304,-2.340086 3.83376,-3.783969 2.19072,-1.443882 4.82954,-1.443882 z m 30.52069,0 q 8.11562,0 12.34769,5.028695 4.28186,4.978906 4.28186,14.88693 v 36.893696 h -9.70887 l -2.14093,-7.468359 h -0.29873 q -1.69283,2.837976 -3.6346,4.729961 -1.89199,1.891984 -4.33165,2.788188 -2.43966,0.94599 -5.72574,0.94599 -4.63039,0 -7.51815,-2.489452 -2.83798,-2.489453 -4.13249,-6.472578 -1.29452,-3.983125 -1.29452,-8.464141 0,-8.713086 4.82954,-13.194102 4.82954,-4.481015 13.74178,-4.829539 l 6.92068,-0.298734 v -2.240508 q 0,-4.580594 -1.44388,-6.821102 -1.3941,-2.290297 -4.63038,-2.290297 -2.38988,0 -5.22786,0.945992 -2.83797,0.945993 -6.22363,2.937555 l -3.68439,-9.908023 q 3.78397,-2.290297 8.31477,-3.485235 4.53081,-1.194937 9.5595,-1.194937 z m 3.33587,30.919008 -3.73418,0.199156 q -4.23207,0.199157 -6.32321,2.389875 -2.04135,2.14093 -2.04135,6.273422 0,3.73418 1.24473,5.576376 1.29451,1.842195 3.73418,1.842195 3.13671,0 5.12827,-3.037133 1.99156,-3.037133 1.99156,-8.165406 z m 39.08443,26.886093 q -8.06583,0 -12.2979,-7.667514 -4.23207,-7.667516 -4.23207,-21.259931 0,-13.642203 4.23207,-21.25993 4.23207,-7.617726 11.8498,-7.617726 2.58903,0 4.77975,0.896203 2.2405,0.896203 4.0827,2.738398 1.89198,1.792407 3.28608,4.530805 h 0.49789 q -0.14937,-3.236289 -0.29874,-5.526586 -0.0996,-2.340086 -0.0996,-3.933336 V 23.147037 h 13.24389 v 77.471783 h -10.60507 l -1.8422,-6.124055 h -0.79662 q -1.59325,2.489454 -3.33587,4.082704 -1.69283,1.543461 -3.73418,2.290301 -2.04135,0.74683 -4.72996,0.74683 z m 3.93333,-11.10296 q 3.98313,0 5.9249,-3.883547 1.94178,-3.883547 1.94178,-12.19832 v -3.1865 q 0,-8.264985 -1.89199,-12.048954 -1.84219,-3.833758 -5.97469,-3.833758 -3.58481,0 -5.32743,4.381438 -1.69282,4.331648 -1.69282,12.845578 0,9.011821 1.7924,13.492837 1.79241,4.431226 5.22785,4.431226 z m 62.23634,-6.223633 q 0,5.675954 -2.14093,9.559501 -2.09114,3.833757 -6.12405,5.82532 -3.98313,1.941772 -9.60929,1.941772 -4.03292,0 -7.71731,-0.79662 -3.6346,-0.74684 -6.87089,-2.34009 V 85.632312 q 2.68861,1.842195 6.22363,3.1865 3.53503,1.294516 7.16963,1.294516 2.78819,0 4.28186,-1.294516 1.49367,-1.294516 1.49367,-3.783969 0,-1.394094 -0.59747,-2.589031 -0.59747,-1.244727 -2.38987,-2.589031 -1.79241,-1.394094 -5.37722,-3.1865 -3.43545,-1.891985 -5.87511,-4.331649 -2.43967,-2.439664 -3.73418,-5.576375 -1.29452,-3.136711 -1.29452,-7.119836 0,-7.368782 4.5806,-11.600852 4.58059,-4.23207 12.54684,-4.23207 4.0827,0 7.66752,1.145148 3.6346,1.095359 7.11983,3.236289 l -3.6346,10.206758 q -2.38987,-1.59325 -5.02869,-2.688609 -2.63882,-1.09536 -5.37722,-1.09536 -2.43967,0 -3.73418,1.194938 -1.29452,1.145148 -1.29452,3.1865 0,1.443883 0.59747,2.489453 0.59747,1.045571 2.34009,2.340086 1.7924,1.244727 5.22785,3.335867 3.43544,1.991563 6.02447,4.331649 2.58904,2.340086 4.03292,5.427008 1.49367,3.086922 1.49367,7.368781 z m 21.70801,-61.14097 v 17.227016 q 0,2.987344 -0.24895,5.924899 -0.24894,2.887765 -0.79662,5.675953 h 0.84641 q 1.09536,-2.63882 2.83798,-4.431227 1.74261,-1.842195 4.03291,-2.788187 2.34009,-0.945992 5.12827,-0.945992 4.82954,0 8.06583,2.340086 3.28608,2.290297 4.92912,6.771312 1.69283,4.481016 1.69283,10.903805 V 100.61882 H 459.63893 V 67.558882 q 0,-6.074266 -1.29452,-8.912242 -1.29451,-2.887766 -4.0827,-2.887766 -2.98734,0 -4.72996,1.941773 -1.69283,1.891985 -2.43967,5.87511 -0.69704,3.983125 -0.69704,10.206758 V 100.61882 H 433.15115 V 23.147037 Z m 57.20764,20.662462 q 8.11562,0 12.34769,5.028695 4.28186,4.978906 4.28186,14.88693 v 36.893696 h -9.70887 l -2.14093,-7.468359 h -0.29873 q -1.69283,2.837976 -3.63461,4.729961 -1.89198,1.891984 -4.33165,2.788188 -2.43966,0.94599 -5.72574,0.94599 -4.63038,0 -7.51815,-2.489452 -2.83797,-2.489453 -4.13249,-6.472578 -1.29451,-3.983125 -1.29451,-8.464141 0,-8.713086 4.82954,-13.194102 4.82953,-4.481015 13.74178,-4.829539 l 6.92068,-0.298734 v -2.240508 q 0,-4.580594 -1.44389,-6.821102 -1.39409,-2.290297 -4.63038,-2.290297 -2.38987,0 -5.22785,0.945992 -2.83798,0.945993 -6.22363,2.937555 l -3.68439,-9.908023 q 3.78396,-2.290297 8.31477,-3.485235 4.5308,-1.194937 9.5595,-1.194937 z m 3.33587,30.919008 -3.73418,0.199156 q -4.23207,0.199157 -6.32321,2.389875 -2.04136,2.14093 -2.04136,6.273422 0,3.73418 1.24473,5.576376 1.29452,1.842195 3.73418,1.842195 3.13671,0 5.12827,-3.037133 1.99157,-3.037133 1.99157,-8.165406 z M 567.731,100.61882 562.70231,72.587577 q -0.24895,-1.742617 -0.54768,-3.584812 -0.24895,-1.891985 -0.49789,-3.783969 -0.24895,-1.891984 -0.49789,-3.73418 -0.19916,-1.842195 -0.39831,-3.485234 h -0.29874 q -0.24894,1.842195 -0.49789,3.783969 -0.24894,1.891984 -0.49789,3.783968 -0.24895,1.891985 -0.49789,3.684391 -0.24895,1.742617 -0.54768,3.236289 l -5.17806,28.130821 H 538.1563 L 526.40608,44.855069 h 13.29368 l 3.93334,21.409297 q 0.54768,2.788188 0.94599,5.974688 0.4481,3.136711 0.79662,6.422789 0.39832,3.236289 0.64726,6.373 h 0.29874 q 0.19915,-1.941773 0.39831,-3.983125 0.24894,-2.041351 0.54768,-4.281859 0.29873,-2.240508 0.69705,-4.630383 0.39831,-2.439664 0.8962,-5.078485 l 4.28186,-22.205922 h 15.18566 l 4.18228,22.504657 q 0.44811,2.937554 0.89621,6.024476 0.4481,3.037133 0.84641,5.974688 0.39831,2.937555 0.69705,5.675953 h 0.39831 q 0.14937,-2.489453 0.39831,-5.178062 0.29874,-2.738399 0.64726,-5.626165 0.39831,-2.887765 0.8962,-5.725742 l 4.5806,-23.649805 h 13.09452 l -11.94937,55.763751 z"
   id="text1"
   style="font-size:101.968px;font-family:'Open Sans';-inkscape-font-specification:'Open Sans, @wght=700,wdth=75.0';font-variation-settings:'wdth' 75, 'wght' 700;fill:#febc2e;stroke-width:1.09253"
   transform="scale(0.9615614,1.0399752)"
   aria-label="Paul Bradshaw" /><text
   xml:space="preserve"
   id="text2"
   style="font-size:93.3332px;font-family:'Open Sans';-inkscape-font-specification:'Open Sans, @wght=700,wdth=75.0';font-variation-settings:'wdth' 75, 'wght' 700;white-space:pre;shape-inside:url(#rect2);display:inline;opacity:0.52;fill:#ffffff;fill-opacity:0.105882" /></svg>
